<?xml version="1.0" encoding="UTF-8"?>
<svg id="Layer_1" xmlns="http://www.w3.org/2000/svg" version="1.1" viewBox="0 0 1836 200">
  <!-- Generator: Adobe Illustrator 29.0.1, SVG Export Plug-In . SVG Version: 2.1.0 Build 192)  -->
  <defs>
    <style>
      .st0 {
        fill: #ff520c;
      }

      .st1 {
        fill: #ff4c01;
      }

      .st2 {
        fill: #ff4d04;
      }

      .st3 {
        fill: #ff530d;
      }

      .st4 {
        fill: #ff4c02;
      }

      .st5 {
        fill: #ff4e05;
      }
    </style>
  </defs>
  <path d="M1145.05,2.4h14.7v44.8c-1.7.1-3.4.2-5.4.4v129.2h.2c.5-5.6.9-11.1,1.5-16.7,1.3-13,2.7-26,4-39,.8-8,1.3-16,2.1-24,1.3-13,2.7-26,3.9-39,.8-8.3,1.3-16.7,2.1-25,.6-7,1.2-14,2.1-21,.1-1,1.7-1.9,2.8-2.6.5-.3,1.3,0,2,0h153c.5,0,1,0,2.1.1.7,6.1,1.6,12.2,2,18.4,1.1,14.7,1.9,29.5,3.1,44.2,1.1,14.4,2.7,28.7,3.9,43,1.1,12.9,1.9,25.8,3.1,38.8.7,8.3,1.7,16.6,2.8,24.9V9.6h179v66.9c4.1-.3,7.8-.5,11.8-.8v108.7c-5.6.6-11.5,1.3-17.4,2-9.5,1.2-19,2.4-28.6,3.6-8.7,1.1-17.4,2.2-26.2,3.3-9.7,1.2-19.4,2.5-29,3.8-1.1.1-2.3.2-3.5.2h-181c-.5,0-1,0-1.9-.1v-18.5h-94v18.3c-1.5.1-2.6.3-3.7.3h-88.5c-3.8,0-5.4-.9-5.2-5,.3-7.5,0-15-.5-22.5-1.1,7.9-2.1,15.8-3.5,23.6-.2,1.4-2,3.6-3.1,3.6-28.1.2-56.3.2-84.7.2,4.8-30.7,9.5-61.1,14.2-91.9h-13V15.4h22.3c3.53,0,5.4-1.97,5.6-5.9h94.6c.1-2.4.2-4.5.4-7.1h55.9M985.55,25.4h-9.1v70.1h14.6c-4.7,30.7-9.3,60.8-13.9,91.1h66.6c4.2-30.5,8.4-60.7,12.6-90.8h11.6v90.9h75.5V51.4h-58.4V19.2h-75.7c-4.5,0-7.9.4-7.6,6.2h-16.3M1331.95,149.1c-3.7-43.1-7.5-86.2-11.2-129.6h-141.1c-4.8,49.6-9.5,99.1-14.3,148.7h77.5v-84.7h15.4v103h76.9c-1.1-12.4-2.1-24.5-3.2-37.5M1513.65,55.9V19.5h-76.1v166.8c29.5-3.7,58.7-7.4,88-11.1v-88.1c-4,.4-7.7.8-12,1.3v-32.5M1354.95,133.9v52.8h66.8V19.6h-66.8v114.3M1117.75,20.1v-6.8h-18v23.9h18v-17.1M1133.75,37.4h15.9V13.4h-18.3c.5,8.2,1,16,2.4,24Z"/>
  <path d="M1541.05,77.7c-.7-6.3-1.6-12.1-1.9-18-.6-8.9-.6-17.9-1.1-26.8-.4-7.7-1.1-15.3-1.7-23.5h4.1c27,0,54,.1,81-.1,4.5,0,5.8,1.6,5.6,5.7-.1,3.3,0,6.6.9,9.9v-15.3h97.1v5c0,23.5-.4,47,.2,70.5.4,13.3-2.3,25.7-6.4,38.2-6.4,19.3-11.4,39.1-18.2,58.3-2,5.7-7.7,10.4-12.4,14.8-1.6,1.5-5.3,1-8,1h-137.2v-5.3c0-23.5.2-47,0-70.5-.2-14.5-1.2-29-1.9-44M1714.35,39.9v-20.2h-76v5.8c0,23.2.2,46.3-.1,69.5,0,6-2,12-2.9,18-.6,3.6-2.6,4.2-6,4.2-23.6-.1-47.3,0-71,0h-5.1v69.8h124.2c7.2,0,11.9-3.5,14.1-10.6,7.2-23.4,14.4-46.7,21.5-70.1.8-2.5,1.2-5.2,1.2-7.8v-58.5M1552.25,98.6c.8,1,1.6,2.7,2.4,2.7,8.3.2,16.5.1,25.2.1-1.9-27.8-3.8-54.9-5.7-81.9h-27.1c1.7,26.3,3.4,52.2,5.1,79M1591.95,50.1c1.1,17,2.2,34.1,3.3,51h27.2c-1.8-27.4-3.6-54.4-5.4-81.5h-27.2c.7,10.1,1.3,19.8,2.1,30.5Z"/>
  <path d="M469.05,197.4h-72.7v-81.8h22.4v-7h-24c4.5-33.2,9-66,13.5-99.1h110.7V2.6h70.9v44.7h-6.1c.1,2.3.3,4.2.3,6.1,0,16-.4,32,.2,48,.4,10.1-1.9,19.3-5.3,28.5-6.4,17.6-12.2,35.5-19.3,52.8-2.2,5.4-7.8,9.7-12.5,13.8-1.6,1.4-5,.9-7.6.9h-70.5M464.55,125.9h-58.5v61h129.3c8.5,0,12.7-2.9,15.6-10.8,6.3-17.2,12.4-34.5,18.9-51.6,2.6-6.8,3.7-13.6,3.6-20.9-.3-15.5,0-31-.1-46.5,0-1.8-.1-3.5-.2-5.7h-58.2v-31.8h-97.7c-3.6,26.4-7.1,52.3-10.7,78.8h22.3v12.2h63.1c-1.6,4.6-2.8,8.6-4.6,12.3-.6,1.3-2.7,2.7-4.3,2.8-5.8.3-11.7.1-18.5.1M570.55,37.4h8.7V13.3h-17.7v24.1h9M529.05,19v18.1h17.8V13.3h-17.8v5.7Z"/>
  <path d="M207.05,122.4v-24.9h13.4v-1.1c-3.2,0-6.4-.1-9.5,0-2.7.1-3.9-.8-3.9-3.7V8.6c29.7,2.2,59,4.4,88.8,6.7.1-1.7.2-3.5.4-5.6h95.6c0,1,.3,2.2.3,3.5v144c0,1.6-1,3.4-2,4.7-8,11.2-20.5,13.9-32.6,17.6-17.5,5.4-34.7,11.4-52.1,17.1-.9.3-1.8.7-2.8.7h-95.5v-75M295.55,186.9c3.3-.2,6.8.3,9.9-.7,22.5-7.3,44.9-14.8,67.3-22.4,5.7-1.9,9.3-7.5,9.3-13.6V19.6h-76.4v88.2h-88.3v79.1h78.2M267.85,90.2c7.2.5,14.5,1,22,1.5V25c-24.2-1.8-48.3-3.5-72.5-5.3v66.8c16.8,1.3,33.2,2.5,50.5,3.8v-.1Z"/>
  <path d="M70.05,9.4h131.7v113.3c-6.2,1.9-12.5,3.7-18.7,5.8-1.2.4-2.6,2.1-2.9,3.5-3.4,16.6-6.7,33.2-9.8,49.9-1,5.1-1.4,10.2-2.1,15.4H14.35v-96.6h41.1c.5-2.5.9-4.6,1.4-7.1H14.25V9.4h55.7M33.55,19.2h-8.9v64.1h78.8v15.5h-37.1c-.5,2.6-1.2,4.7-1.2,6.9,0,4.5-2.2,5.4-6.3,5.3-8.7-.3-17.3,0-26,0h-8.2v75.9c1.4.1,2.5.3,3.6.3h126.9c3.5,0,4.5-1.3,5-4.5,2.7-15.1,6.6-30,8.1-45.2,1.2-12.9,6.4-20,19.3-21.1,3.6-.3,4.6-2.4,4.6-6-.2-28.6,0-57.3,0-86v-5.1H33.55v-.1Z"/>
  <path d="M799.25,14.4c5.8,1.5,11.3,2.9,16.7,4.4,6.9,2,13.8,4.1,21.1,6.3v-15.5h114c0,14.7.3,29.3-.1,43.9-.1,4.9,2,6.3,6,6.9,4.73.73,7.1,3.43,7.1,8.1v103.5c-4.6-1.6-8.4-2.9-13-4.5,0,3.4-.5,6.7.1,9.8,1.4,7.1-3.6,10.7-7.2,15.4-3.8,5.1-8.6,4.9-13.8,4.9h-153.7v-87.7h13c0-.3.1-.6.2-.8-4.4-1.7-8.8-3.3-13.3-5V7c7.8,2.5,15.2,4.9,23.1,7.3M800.05,24.9c-4.5-1.3-9-2.6-14-4.1,0,25,0,49,.2,72.9,0,1.5,2.4,3.7,4.1,4.3,17.9,6.7,36,13.2,53.9,19.7,1.1.4,2.1.9,3.2,1.4,0,.3-.2.6-.3.8h-60.8v66.6c1.2.1,2,.3,2.8.3h142.5c5.1,0,9.6-4.6,9.6-9.8v-23.8c4.4,1.4,8.1,2.7,12.5,4.1v-78.1c0-9.2,0-9.3-8.8-11.8-2.9-.8-3.9-2.2-3.8-5.2.2-12.5,0-25,0-37.5v-5.2h-94.4v18.9c-15.8-4.6-30.9-9-46.9-13.6,0,0,.2.1.2.1Z"/>
  <path d="M745.05,60.4h25.8c0,1.6.2,3.1.2,4.5,0,16.5-.6,33,.3,49.5.4,7.3-2.8,11.8-7.2,16.2-3.9,3.9-8.2,7.4-12.1,11.4-2.3,2.5-4.7,3.5-8.2,3.4-49.8-.1-99.6,0-149.4,0h-5.2V60.4h155.8M747.55,71.1h-148.3v63.6c.6.2.9.4,1.2.4h141.9c1.3,0,3-.6,4-1.5,4.5-4.2,8.8-8.6,13.1-13.1.7-.8,1.3-2,1.3-3v-46.4h-13.3.1Z"/>
  <path class="st4" d="M986.05,25.4h15.8c-.3-5.9,3.1-6.3,7.6-6.2,25,.2,50,0,75.7,0v32.1h58.4v135.3h-75.5v-90.9h-11.6c-4.2,30.2-8.4,60.3-12.6,90.8h-66.6c4.6-30.2,9.2-60.4,13.9-91.1h-14.6V25.4h9.6-.1Z"/>
  <path class="st4" d="M1332.05,149.5c1.1,12.5,2.1,24.6,3.2,37h-76.9v-103h-15.4v84.7h-77.5c4.8-49.7,9.5-99.2,14.3-148.7h141.1c3.7,43.4,7.5,86.5,11.2,130h0Z"/>
  <path class="st4" d="M1513.65,56.4v32c4.2-.4,8-.8,12-1.3v88.1c-29.3,3.7-58.5,7.4-88,11.1V19.5h76.1v36.9h-.1Z"/>
  <path class="st1" d="M1354.95,133.4V19.6h66.8v167h-66.8v-53.3.1Z"/>
  <path class="st3" d="M1117.75,20.6v16.6h-18V13.3h18v7.3Z"/>
  <path class="st5" d="M1133.35,37.3c-.9-7.9-1.4-15.7-1.9-23.9h18.3v24h-16.4v-.1Z"/>
  <path class="st4" d="M1714.35,40.4v58c0,2.6-.4,5.3-1.2,7.8-7.1,23.4-14.3,46.8-21.5,70.1-2.2,7.1-6.9,10.6-14.1,10.6h-124.2v-69.8h76.1c3.3,0,5.4-.6,6-4.2.9-6,2.8-12,2.9-18,.3-23.1.1-46.3.1-69.5s0-3.6,0-5.8h76v20.7l-.1.1h0Z"/>
  <path class="st2" d="M1552.25,98.1c-1.7-26.4-3.4-52.3-5.1-78.5h27.1c1.9,27,3.7,54.1,5.7,81.9-8.7,0-16.9,0-25.2-.1-.8,0-1.6-1.8-2.5-3.2v-.1Z"/>
  <path class="st2" d="M1591.95,49.6c-.7-10.2-1.4-20-2-30.1h27.2c1.8,27.1,3.6,54.1,5.4,81.5h-27.2c-1.1-16.9-2.2-34-3.4-51.5v.1Z"/>
  <path class="st4" d="M465.05,125.9c6.3,0,12.2.2,18-.1,1.5,0,3.6-1.4,4.3-2.8,1.8-3.7,2.9-7.7,4.6-12.3h-63.1v-12.2h-22.3c3.6-26.5,7.1-52.5,10.7-78.8h97.7v31.8h58.2c0,2.2.2,3.9.2,5.7,0,15.5-.2,31,.1,46.5.1,7.3-1,14.1-3.6,20.9-6.5,17.1-12.6,34.4-18.9,51.6-2.9,7.9-7.1,10.8-15.6,10.8h-129.3v-61h59M494.05,82.6v-20.7h-15.7c-1,7.2-2,14-3.1,21.3,6.2,0,12.1,0,18.8-.6h0Z"/>
  <path class="st0" d="M570.05,37.4h-8.6V13.3h17.7v24.1h-9.2.1Z"/>
  <path class="st2" d="M529.05,18.5v-5.2h17.8v23.8h-17.8v-18.6Z"/>
  <path class="st4" d="M295.05,186.9h-77.7v-79.1h88.3V19.6h76.4v130.6c0,6.2-3.6,11.7-9.3,13.6-22.4,7.6-44.8,15.1-67.3,22.4-3.1,1-6.6.5-10.4.7h0Z"/>
  <path class="st4" d="M267.45,90.2c-16.9-1.3-33.3-2.5-50-3.7V19.7c24.2,1.8,48.3,3.6,72.5,5.3v66.7c-7.5-.5-14.8-1-22.5-1.5h0Z"/>
  <path class="st4" d="M34.05,19.2h158.1v91.1c0,3.7-1,5.7-4.6,6-12.9,1.2-18.1,8.2-19.3,21.1-1.4,15.2-5.4,30.1-8.1,45.2-.6,3.2-1.5,4.5-5,4.5-42.3-.1-84.6,0-126.9,0-1.1,0-2.3-.2-3.6-.3v-75.9h8.2c8.7,0,17.3-.2,26,0,4.1.1,6.3-.8,6.3-5.3,0-2.1.7-4.2,1.2-6.9h37.1v-15.5H24.65V19.2h9.4Z"/>
  <path class="st4" d="M800.35,25.1c15.6,4.5,30.7,8.9,46.5,13.5v-18.9h94.4v42.7c0,3,.9,4.4,3.8,5.2,8.8,2.5,8.8,2.6,8.8,11.8v78.1c-4.4-1.5-8.1-2.7-12.5-4.1v23.8c0,5.2-4.5,9.8-9.6,9.8h-142.5c-.8,0-1.6-.1-2.8-.3v-66.6h60.8c0-.3.2-.6.3-.8-1.1-.5-2.1-1-3.2-1.4-18-6.5-36-13-53.9-19.7-1.7-.6-4.1-2.8-4.1-4.3-.3-24-.2-48-.2-72.9,5,1.5,9.5,2.8,14.4,4.2,0,0-.2-.1-.2-.1Z"/>
  <path class="st4" d="M748.05,71.1h12.8v46.4c0,1-.6,2.3-1.3,3-4.3,4.4-8.6,8.8-13.1,13.1-1,.9-2.6,1.5-4,1.5h-141.9c-.3,0-.6-.2-1.2-.4v-63.6h148.8-.1Z"/>
  <path d="M493.65,83c-6.3.3-12.2.3-18.4.3,1-7.3,2-14.2,3.1-21.3h15.7c0,7,0,13.8-.4,21h0Z"/>
</svg>