<?xml version="1.0" encoding="UTF-8"?>
<svg id="Layer_1" xmlns="http://www.w3.org/2000/svg" version="1.1" viewBox="0 0 1826 200">
  <!-- Generator: Adobe Illustrator 29.0.1, SVG Export Plug-In . SVG Version: 2.1.0 Build 192)  -->
  <defs>
    <style>
      .st0 {
        fill: #ff520c;
      }

      .st1 {
        fill: #ff4c01;
      }

      .st2 {
        fill: #ff4d04;
      }

      .st3 {
        fill: #ff530d;
      }

      .st4 {
        fill: #ff4c02;
      }

      .st5 {
        fill: #ff4e05;
      }
    </style>
  </defs>
  <path class="st4" d="M983.5,26h15.8c-.3-5.9,3.1-6.3,7.6-6.2,25,.2,50,0,75.7,0v32.1h58.4v135.3h-75.5v-90.9h-11.6c-4.2,30.2-8.4,60.3-12.6,90.8h-66.6c4.6-30.2,9.2-60.4,13.9-91.1h-14.6V26h9.6-.1Z"/>
  <path class="st4" d="M1329.5,150.1c1.1,12.5,2.1,24.6,3.2,37h-76.9v-103h-15.4v84.7h-77.5c4.8-49.7,9.5-99.2,14.3-148.7h141.1c3.7,43.4,7.5,86.5,11.2,130h0Z"/>
  <path class="st4" d="M1511.1,57v32c4.2-.4,8-.8,12-1.3v88.1c-29.3,3.7-58.5,7.4-88,11.1V20.1h76.1v36.9h-.1Z"/>
  <path class="st1" d="M1352.4,134V20.2h66.8v167h-66.8v-53.3.1Z"/>
  <path class="st3" d="M1115.2,21.2v16.6h-18V13.9h18v7.3Z"/>
  <path class="st5" d="M1130.8,37.9c-.9-7.9-1.4-15.7-1.9-23.9h18.3v24h-16.4v-.1Z"/>
  <path class="st4" d="M1711.8,41v58c0,2.6-.4,5.3-1.2,7.8-7.1,23.4-14.3,46.8-21.5,70.1-2.2,7.1-6.9,10.6-14.1,10.6h-124.2v-69.8h76.1c3.3,0,5.4-.6,6-4.2.9-6,2.8-12,2.9-18,.3-23.1.1-46.3.1-69.5s0-3.6,0-5.8h76v20.7l-.1.1h0Z"/>
  <path class="st2" d="M1549.7,98.7c-1.7-26.4-3.4-52.3-5.1-78.5h27.1c1.9,27,3.7,54.1,5.7,81.9-8.7,0-16.9,0-25.2-.1-.8,0-1.6-1.8-2.5-3.2v-.1Z"/>
  <path class="st2" d="M1589.4,50.2c-.7-10.2-1.4-20-2-30.1h27.2c1.8,27.1,3.6,54.1,5.4,81.5h-27.2c-1.1-16.9-2.2-34-3.4-51.5v.1Z"/>
  <path class="st4" d="M462.5,126.5c6.3,0,12.2.2,18-.1,1.5,0,3.6-1.4,4.3-2.8,1.8-3.7,2.9-7.7,4.6-12.3h-63.1v-12.2h-22.3c3.6-26.5,7.1-52.5,10.7-78.8h97.7v31.8h58.2c0,2.2.2,3.9.2,5.7,0,15.5-.2,31,.1,46.5.1,7.3-1,14.1-3.6,20.9-6.5,17.1-12.6,34.4-18.9,51.6-2.9,7.9-7.1,10.8-15.6,10.8h-129.3v-61h59M491.5,83.2v-20.7h-15.7c-1,7.2-2,14-3.1,21.3,6.2,0,12.1,0,18.8-.6h0Z"/>
  <path class="st0" d="M567.5,38h-8.6V13.9h17.7v24.1h-9.2.1Z"/>
  <path class="st2" d="M526.5,19.1v-5.2h17.8v23.8h-17.8v-18.6Z"/>
  <path class="st4" d="M292.5,187.5h-77.7v-79.1h88.3V20.2h76.4v130.6c0,6.2-3.6,11.7-9.3,13.6-22.4,7.6-44.8,15.1-67.3,22.4-3.1,1-6.6.5-10.4.7h0Z"/>
  <path class="st4" d="M264.9,90.8c-16.9-1.3-33.3-2.5-50-3.7V20.3c24.2,1.8,48.3,3.6,72.5,5.3v66.7c-7.5-.5-14.8-1-22.5-1.5Z"/>
  <path class="st4" d="M31.5,19.8h158.1v91.1c0,3.7-1,5.7-4.6,6-12.9,1.2-18.1,8.2-19.3,21.1-1.4,15.2-5.4,30.1-8.1,45.2-.6,3.2-1.5,4.5-5,4.5-42.3-.1-84.6,0-126.9,0-1.1,0-2.3-.2-3.6-.3v-75.9h8.2c8.7,0,17.3-.2,26,0,4.1.1,6.3-.8,6.3-5.3,0-2.1.7-4.2,1.2-6.9h37.1v-15.5H22.1V19.8h9.4Z"/>
  <path class="st4" d="M797.8,25.7c15.6,4.5,30.7,8.9,46.5,13.5v-18.9h94.4v42.7c0,3,.9,4.4,3.8,5.2,8.8,2.5,8.8,2.6,8.8,11.8v78.1c-4.4-1.5-8.1-2.7-12.5-4.1v23.8c0,5.2-4.5,9.8-9.6,9.8h-142.5c-.8,0-1.6-.1-2.8-.3v-66.6h60.8c0-.3.2-.6.3-.8-1.1-.5-2.1-1-3.2-1.4-18-6.5-36-13-53.9-19.7-1.7-.6-4.1-2.8-4.1-4.3-.3-24-.2-48-.2-72.9,5,1.5,9.5,2.8,14.4,4.2,0,0-.2-.1-.2-.1Z"/>
  <path class="st4" d="M745.5,71.7h12.8v46.4c0,1-.6,2.3-1.3,3-4.3,4.4-8.6,8.8-13.1,13.1-1,.9-2.6,1.5-4,1.5h-141.9c-.3,0-.6-.2-1.2-.4v-63.6h148.8s-.1,0-.1,0Z"/>
</svg>